<svg width="35" height="34" viewBox="0 0 35 34" fill="none" xmlns="http://www.w3.org/2000/svg">
<path d="M33.0868 1L19.572 11L22.0852 5.10667L33.0868 1Z" fill="#E17726" stroke="#E17726" strokeWidth="0.25" strokeLinecap="round" strokeLinejoin="round"/>
<path d="M1.91321 1L15.3077 11.0933L12.9149 5.10666L1.91321 1Z" fill="#E27625" stroke="#E27625" strokeWidth="0.25" strokeLinecap="round" strokeLinejoin="round"/>
<path d="M28.2206 24.1865L24.6248 29.6799L32.3245 31.7999L34.5303 24.3066L28.2206 24.1865Z" fill="#E27625" stroke="#E27625" strokeWidth="0.25" strokeLinecap="round" strokeLinejoin="round"/>
<path d="M0.482788 24.3066L2.67508 31.7999L10.3616 29.6799L6.77898 24.1865L0.482788 24.3066Z" fill="#E27625" stroke="#E27625" strokeWidth="0.25" strokeLinecap="round" strokeLinejoin="round"/>
<path d="M9.94702 14.9066L7.80823 18.1333L15.4278 18.48L15.1739 10.28L9.94702 14.9066Z" fill="#E27625" stroke="#E27625" strokeWidth="0.25" strokeLinecap="round" strokeLinejoin="round"/>
<path d="M25.0525 14.9067L19.7456 10.1868L19.5718 18.4801L27.1913 18.1334L25.0525 14.9067Z" fill="#E27625" stroke="#E27625" strokeWidth="0.25" strokeLinecap="round" strokeLinejoin="round"/>
<path d="M10.3616 29.6799L14.9734 27.4533L11.0032 24.3599L10.3616 29.6799Z" fill="#E27625" stroke="#E27625" strokeWidth="0.25" strokeLinecap="round" strokeLinejoin="round"/>
<path d="M20.0265 27.4533L24.6249 29.6799L23.9966 24.3599L20.0265 27.4533Z" fill="#E27625" stroke="#E27625" strokeWidth="0.25" strokeLinecap="round" strokeLinejoin="round"/>
<path d="M24.6249 29.6801L20.0265 27.4535L20.4007 30.4401L20.3606 31.7068L24.6249 29.6801Z" fill="#D5BFB2" stroke="#D5BFB2" strokeWidth="0.25" strokeLinecap="round" strokeLinejoin="round"/>
<path d="M10.3616 29.6801L14.6393 31.7068L14.6125 30.4401L14.9734 27.4535L10.3616 29.6801Z" fill="#D5BFB2" stroke="#D5BFB2" strokeWidth="0.25" strokeLinecap="round" strokeLinejoin="round"/>
<path d="M14.7194 22.3866L10.8962 21.2667L13.5965 20.0266L14.7194 22.3866Z" fill="#233447" stroke="#233447" strokeWidth="0.25" strokeLinecap="round" strokeLinejoin="round"/>
<path d="M20.2804 22.3866L21.4033 20.0266L24.117 21.2667L20.2804 22.3866Z" fill="#233447" stroke="#233447" strokeWidth="0.25" strokeLinecap="round" strokeLinejoin="round"/>
<path d="M10.3616 29.6799L11.03 24.1865L6.77905 24.3066L10.3616 29.6799Z" fill="#CC6228" stroke="#CC6228" strokeWidth="0.25" strokeLinecap="round" strokeLinejoin="round"/>
<path d="M23.9698 24.1865L24.6249 29.6799L28.2208 24.3066L23.9698 24.1865Z" fill="#CC6228" stroke="#CC6228" strokeWidth="0.25" strokeLinecap="round" strokeLinejoin="round"/>
<path d="M27.1913 18.1332L19.5718 18.4799L20.2802 22.3866L21.4032 20.0266L24.1168 21.2666L27.1913 18.1332Z" fill="#CC6228" stroke="#CC6228" strokeWidth="0.25" strokeLinecap="round" strokeLinejoin="round"/>
<path d="M10.8962 21.2666L13.5964 20.0266L14.7194 22.3866L15.4278 18.4799L7.80823 18.1332L10.8962 21.2666Z" fill="#CC6228" stroke="#CC6228" strokeWidth="0.25" strokeLinecap="round" strokeLinejoin="round"/>
<path d="M7.80847 18.1332L11.0034 24.3599L10.8964 21.2666L7.80847 18.1332Z" fill="#E27525" stroke="#E27525" strokeWidth="0.25" strokeLinecap="round" strokeLinejoin="round"/>
<path d="M24.117 21.2666L23.9967 24.3599L27.1916 18.1332L24.117 21.2666Z" fill="#E27525" stroke="#E27525" strokeWidth="0.25" strokeLinecap="round" strokeLinejoin="round"/>
<path d="M15.4283 18.4799L14.7197 22.3866L15.6154 26.9999L15.8159 20.9199L15.4283 18.4799Z" fill="#E27525" stroke="#E27525" strokeWidth="0.25" strokeLinecap="round" strokeLinejoin="round"/>
<path d="M19.572 18.4799L19.1976 20.9066L19.3848 26.9999L20.2804 22.3866L19.572 18.4799Z" fill="#E27525" stroke="#E27525" strokeWidth="0.25" strokeLinecap="round" strokeLinejoin="round"/>
<path d="M20.2805 22.3867L19.3849 27L20.0266 27.4534L23.9968 24.36L24.1171 21.2667L20.2805 22.3867Z" fill="#F5841F" stroke="#F5841F" strokeWidth="0.25" strokeLinecap="round" strokeLinejoin="round"/>
<path d="M10.8962 21.2667L11.0033 24.36L14.9734 27.4534L15.6151 27L14.7194 22.3867L10.8962 21.2667Z" fill="#F5841F" stroke="#F5841F" strokeWidth="0.25" strokeLinecap="round" strokeLinejoin="round"/>
<path d="M20.3606 31.7067L20.4007 30.44L20.0532 30.1466H14.9467L14.6125 30.44L14.6393 31.7067L10.3616 29.68L11.8587 30.9066L14.8932 33H20.0932L23.1411 30.9066L24.6249 29.68L20.3606 31.7067Z" fill="#C0AC9D" stroke="#C0AC9D" strokeWidth="0.25" strokeLinecap="round" strokeLinejoin="round"/>
<path d="M20.0263 27.4532L19.3847 27H15.615L14.9734 27.4532L14.6124 30.44L14.9466 30.1466H20.0531L20.4007 30.44L20.0263 27.4532Z" fill="#161616" stroke="#161616" strokeWidth="0.25" strokeLinecap="round" strokeLinejoin="round"/>
<path d="M33.6615 11.6533L34.7978 6.13333L33.0867 1L20.0265 10.6667L25.0527 14.9066L32.1509 16.9733L33.715 15.1467L33.0333 14.6533L34.116 13.6667L33.2872 13.0267L34.37 12.2L33.6615 11.6533Z" fill="#763E1A" stroke="#763E1A" strokeWidth="0.25" strokeLinecap="round" strokeLinejoin="round"/>
<path d="M0.202148 6.13333L1.35177 11.6533L0.616552 12.2L1.7127 13.0267L0.883903 13.6667L1.96668 14.6533L1.28493 15.1467L2.84896 16.9733L9.94726 14.9066L14.9734 10.6667L1.91322 1L0.202148 6.13333Z" fill="#763E1A" stroke="#763E1A" strokeWidth="0.25" strokeLinecap="round" strokeLinejoin="round"/>
<path d="M32.151 16.9732L25.0528 14.9066L27.1916 18.1333L23.9967 24.3599L28.2209 24.3066H34.5304L32.151 16.9732Z" fill="#F5841F" stroke="#F5841F" strokeWidth="0.25" strokeLinecap="round" strokeLinejoin="round"/>
<path d="M9.94708 14.9066L2.84887 16.9732L0.482788 24.3066H6.77898L11.0031 24.3599L7.80829 18.1333L9.94708 14.9066Z" fill="#F5841F" stroke="#F5841F" strokeWidth="0.25" strokeLinecap="round" strokeLinejoin="round"/>
<path d="M19.5718 18.48L20.0263 10.6666L22.0849 5.10664H12.9147L14.9733 10.6666L15.4278 18.48L15.6016 20.9333L15.6149 27H19.3846L19.398 20.9333L19.5718 18.48Z" fill="#F5841F" stroke="#F5841F" strokeWidth="0.25" strokeLinecap="round" strokeLinejoin="round"/>
</svg>
