<svg width="16" height="16" viewBox="0 0 16 16" fill="none" xmlns="http://www.w3.org/2000/svg">
<path d="M12.8334 5.5V11.5C12.8334 12.2364 12.2365 12.8333 11.5001 12.8333H4.50008C3.7637 12.8333 3.16675 12.2364 3.16675 11.5V4.5" stroke="#544DEF" stroke-linecap="round" stroke-linejoin="round"/>
<path d="M10.9999 8.66667C10.9999 8.85073 10.8507 9 10.6666 9C10.4825 9 10.3333 8.85073 10.3333 8.66667C10.3333 8.4826 10.4825 8.33333 10.6666 8.33333C10.8507 8.33333 10.9999 8.4826 10.9999 8.66667Z" stroke="#544DEF" stroke-width="0.666667" stroke-linecap="round" stroke-linejoin="round"/>
<path d="M11.5001 5.5H12.8334M11.5001 5.5H4.33341C3.68908 5.5 3.16675 4.97767 3.16675 4.33333C3.16675 3.689 3.68908 3.16667 4.33341 3.16667H10.1667C10.9031 3.16667 11.5001 3.76362 11.5001 4.5V5.5Z" stroke="#544DEF" stroke-linecap="round" stroke-linejoin="round"/>
</svg>
